<svg xmlns="http://www.w3.org/2000/svg" style="display: none;">
  <defs>
    <!-- house -->
    <symbol id="house" viewBox="0 0 640 640">
      <path d="M341.8 72.6C329.5 61.2 310.5 61.2 298.3 72.6L74.3 280.6C64.7 289.6 61.5 303.5 66.3 315.7C71.1 327.9 82.8 336 96 336L112 336L112 512C112 547.3 140.7 576 176 576L464 576C499.3 576 528 547.3 528 512L528 336L544 336C557.2 336 569 327.9 573.8 315.7C578.6 303.5 575.4 289.5 565.8 280.6L341.8 72.6zM304 384L336 384C362.5 384 384 405.5 384 432L384 528L256 528L256 432C256 405.5 277.5 384 304 384z"/>
    </symbol>

    <!-- image -->
    <symbol id="image" viewBox="0 0 640 640">
      <path d="M160 96C124.7 96 96 124.7 96 160L96 480C96 515.3 124.7 544 160 544L480 544C515.3 544 544 515.3 544 480L544 160C544 124.7 515.3 96 480 96L160 96zM224 176C250.5 176 272 197.5 272 224C272 250.5 250.5 272 224 272C197.5 272 176 250.5 176 224C176 197.5 197.5 176 224 176zM368 288C376.4 288 384.1 292.4 388.5 299.5L476.5 443.5C481 450.9 481.2 460.2 477 467.8C472.8 475.4 464.7 480 456 480L184 480C175.1 480 166.8 475 162.7 467.1C158.6 459.2 159.2 449.6 164.3 442.3L220.3 362.3C224.8 355.9 232.1 352.1 240 352.1C247.9 352.1 255.2 355.9 259.7 362.3L286.1 400.1L347.5 299.6C351.9 292.5 359.6 288.1 368 288.1z"/>
    </symbol>

    <!-- expand -->
    <symbol id="expand" viewBox="0 0 640 640">
      <path d="M128 96C110.3 96 96 110.3 96 128L96 224C96 241.7 110.3 256 128 256C145.7 256 160 241.7 160 224L160 160L224 160C241.7 160 256 145.7 256 128C256 110.3 241.7 96 224 96L128 96zM160 416C160 398.3 145.7 384 128 384C110.3 384 96 398.3 96 416L96 512C96 529.7 110.3 544 128 544L224 544C241.7 544 256 529.7 256 512C256 494.3 241.7 480 224 480L160 480L160 416zM416 96C398.3 96 384 110.3 384 128C384 145.7 398.3 160 416 160L480 160L480 224C480 241.7 494.3 256 512 256C529.7 256 544 241.7 544 224L544 128C544 110.3 529.7 96 512 96L416 96zM544 416C544 398.3 529.7 384 512 384C494.3 384 480 398.3 480 416L480 480L416 480C398.3 480 384 494.3 384 512C384 529.7 398.3 544 416 544L512 544C529.7 544 544 529.7 544 512L544 416z"/>
    </symbol>

    <!-- compress -->
    <symbol id="compress" viewBox="0 0 640 640">
      <path d="M256 128C256 110.3 241.7 96 224 96C206.3 96 192 110.3 192 128L192 192L128 192C110.3 192 96 206.3 96 224C96 241.7 110.3 256 128 256L224 256C241.7 256 256 241.7 256 224L256 128zM128 384C110.3 384 96 398.3 96 416C96 433.7 110.3 448 128 448L192 448L192 512C192 529.7 206.3 544 224 544C241.7 544 256 529.7 256 512L256 416C256 398.3 241.7 384 224 384L128 384zM448 128C448 110.3 433.7 96 416 96C398.3 96 384 110.3 384 128L384 224C384 241.7 398.3 256 416 256L512 256C529.7 256 544 241.7 544 224C544 206.3 529.7 192 512 192L448 192L448 128zM416 384C398.3 384 384 398.3 384 416L384 512C384 529.7 398.3 544 416 544C433.7 544 448 529.7 448 512L448 448L512 448C529.7 448 544 433.7 544 416C544 398.3 529.7 384 512 384L416 384z"/>
    </symbol>

    <!-- cube -->
    <symbol id="cube" viewBox="0 0 576 512">
      <path d="M234.5 5.7c13.9-5 29.1-5 43.1 0l192 68.6C495 83.4 512 107.5 512 134.6l0 242.9c0 27-17 51.2-42.5 60.3l-192 68.6c-13.9 5-29.1 5-43.1 0l-192-68.6C17 428.6 0 404.5 0 377.4L0 134.6c0-27 17-51.2 42.5-60.3l192-68.6zM256 66L82.3 128 256 190l173.7-62L256 66zm32 368.6l160-57.1 0-188L288 246.6l0 188z"/>
    </symbol>

    <!-- cubes -->
    <symbol id="cubes" viewBox="0 0 576 512">
      <path d="M290.8 48.6l78.4 29.7L288 109.5 206.8 78.3l78.4-29.7c1.8-.7 3.8-.7 5.7 0zM136 92.5l0 112.2c-1.3 .4-2.6 .8-3.9 1.3l-96 36.4C14.4 250.6 0 271.5 0 294.7L0 413.9c0 22.2 13.1 42.3 33.5 51.3l96 42.2c14.4 6.3 30.7 6.3 45.1 0L288 457.5l113.5 49.9c14.4 6.3 30.7 6.3 45.1 0l96-42.2c20.3-8.9 33.5-29.1 33.5-51.3l0-119.1c0-23.3-14.4-44.1-36.1-52.4l-96-36.4c-1.3-.5-2.6-.9-3.9-1.3l0-112.2c0-23.3-14.4-44.1-36.1-52.4l-96-36.4c-12.8-4.8-26.9-4.8-39.7 0l-96 36.4C150.4 48.4 136 69.3 136 92.5zM392 210.6l-82.4 31.2 0-89.2L392 121l0 89.6zM154.8 250.9l78.4 29.7L152 311.7 70.8 280.6l78.4-29.7c1.8-.7 3.8-.7 5.7 0zm18.8 204.4l0-100.5L256 323.2l0 95.9-82.4 36.2zM421.2 250.9c1.8-.7 3.8-.7 5.7 0l78.4 29.7L424 311.7l-81.2-31.1 78.4-29.7zM523.2 421.2l-77.6 34.1 0-100.5L528 323.2l0 90.7c0 3.2-1.9 6-4.8 7.3z"/>
    </symbol>
    
    <!-- cut -->
    <symbol id="cut" viewBox="0 0 640 640">
      <path d="M256 320L216.5 359.5C203.9 354.6 190.3 352 176 352C114.1 352 64 402.1 64 464C64 525.9 114.1 576 176 576C237.9 576 288 525.9 288 464C288 449.7 285.3 436.1 280.5 423.5L563.2 140.8C570.3 133.7 570.3 122.3 563.2 115.2C534.9 86.9 489.1 86.9 460.8 115.2L320 256L280.5 216.5C285.4 203.9 288 190.3 288 176C288 114.1 237.9 64 176 64C114.1 64 64 114.1 64 176C64 237.9 114.1 288 176 288C190.3 288 203.9 285.3 216.5 280.5L256 320zM353.9 417.9L460.8 524.8C489.1 553.1 534.9 553.1 563.2 524.8C570.3 517.7 570.3 506.3 563.2 499.2L417.9 353.9L353.9 417.9zM128 176C128 149.5 149.5 128 176 128C202.5 128 224 149.5 224 176C224 202.5 202.5 224 176 224C149.5 224 128 202.5 128 176zM176 416C202.5 416 224 437.5 224 464C224 490.5 202.5 512 176 512C149.5 512 128 490.5 128 464C128 437.5 149.5 416 176 416z"/>
    </symbol>

    <!-- spinner -->
    <symbol id="spinner" viewBox="0 0 640 640">
      <path d="M272 112C272 85.5 293.5 64 320 64C346.5 64 368 85.5 368 112C368 138.5 346.5 160 320 160C293.5 160 272 138.5 272 112zM272 528C272 501.5 293.5 480 320 480C346.5 480 368 501.5 368 528C368 554.5 346.5 576 320 576C293.5 576 272 554.5 272 528zM112 272C138.5 272 160 293.5 160 320C160 346.5 138.5 368 112 368C85.5 368 64 346.5 64 320C64 293.5 85.5 272 112 272zM480 320C480 293.5 501.5 272 528 272C554.5 272 576 293.5 576 320C576 346.5 554.5 368 528 368C501.5 368 480 346.5 480 320zM139 433.1C157.8 414.3 188.1 414.3 206.9 433.1C225.7 451.9 225.7 482.2 206.9 501C188.1 519.8 157.8 519.8 139 501C120.2 482.2 120.2 451.9 139 433.1zM139 139C157.8 120.2 188.1 120.2 206.9 139C225.7 157.8 225.7 188.1 206.9 206.9C188.1 225.7 157.8 225.7 139 206.9C120.2 188.1 120.2 157.8 139 139zM501 433.1C519.8 451.9 519.8 482.2 501 501C482.2 519.8 451.9 519.8 433.1 501C414.3 482.2 414.3 451.9 433.1 433.1C451.9 414.3 482.2 414.3 501 433.1z"/>
    </symbol>

    <!-- exclamation-triangle -->
    <symbol id="exclamation-triangle" viewBox="0 0 640 640">
      <path d="M320 64C334.7 64 348.2 72.1 355.2 85L571.2 485C577.9 497.4 577.6 512.4 570.4 524.5C563.2 536.6 550.1 544 536 544L104 544C89.9 544 76.8 536.6 69.6 524.5C62.4 512.4 62.1 497.4 68.8 485L284.8 85C291.8 72.1 305.3 64 320 64zM320 416C302.3 416 288 430.3 288 448C288 465.7 302.3 480 320 480C337.7 480 352 465.7 352 448C352 430.3 337.7 416 320 416zM320 224C301.8 224 287.3 239.5 288.6 257.7L296 361.7C296.9 374.2 307.4 384 319.9 384C332.5 384 342.9 374.3 343.8 361.7L351.2 257.7C352.5 239.5 338.1 224 319.8 224z"/>
    </symbol>

    <!-- list-alt -->
    <symbol id="list-alt" viewBox="0 0 640 640">
      <path d="M0 96C0 60.7 28.7 32 64 32l448 0c35.3 0 64 28.7 64 64l0 320c0 35.3-28.7 64-64 64L64 480c-35.3 0-64-28.7-64-64L0 96zM128 288a32 32 0 1 0 0-64 32 32 0 1 0 0 64zm32-128a32 32 0 1 0 -64 0 32 32 0 1 0 64 0zM128 384a32 32 0 1 0 0-64 32 32 0 1 0 0 64zm96-248c-13.3 0-24 10.7-24 24s10.7 24 24 24l224 0c13.3 0 24-10.7 24-24s-10.7-24-24-24l-224 0zm0 96c-13.3 0-24 10.7-24 24s10.7 24 24 24l224 0c13.3 0 24-10.7 24-24s-10.7-24-24-24l-224 0zm0 96c-13.3 0-24 10.7-24 24s10.7 24 24 24l224 0c13.3 0 24-10.7 24-24s-10.7-24-24-24l-224 0z"/>
    </symbol>

    <!-- chevron-left -->
    <symbol id="chevron-left" viewBox="0 0 640 640">
      <path d="M169.4 297.4C156.9 309.9 156.9 330.2 169.4 342.7L361.4 534.7C373.9 547.2 394.2 547.2 406.7 534.7C419.2 522.2 419.2 501.9 406.7 489.4L237.3 320L406.6 150.6C419.1 138.1 419.1 117.8 406.6 105.3C394.1 92.8 373.8 92.8 361.3 105.3L169.3 297.3z"/>
    </symbol>

    <!-- chevron-right -->
    <symbol id="chevron-right" viewBox="0 0 640 640">
      <path d="M471.1 297.4C483.6 309.9 483.6 330.2 471.1 342.7L279.1 534.7C266.6 547.2 246.3 547.2 233.8 534.7C221.3 522.2 221.3 501.9 233.8 489.4L403.2 320L233.9 150.6C221.4 138.1 221.4 117.8 233.9 105.3C246.4 92.8 266.7 92.8 279.2 105.3L471.2 297.3z"/>
    </symbol>

    <!-- slice-fill - исправленный viewBox -->
    <symbol id="slice-fill" viewBox="0 0 24 24">
      <path d="M13.7678 12.2288L15.8892 14.3501C11.293 18.9463 5.63612 20.3605 2.10059 19.6534L17.6569 4.09705L19.7783 6.21837L13.7678 12.2288Z"/>
    </symbol>
    
    <!-- arrow-rotate-left -->
    <symbol id="arrow-rotate-left" viewBox="0 0 640 640">
      <path d="M320 128C263.2 128 212.1 152.7 176.9 192L224 192C241.7 192 256 206.3 256 224C256 241.7 241.7 256 224 256L96 256C78.3 256 64 241.7 64 224L64 96C64 78.3 78.3 64 96 64C113.7 64 128 78.3 128 96L128 150.7C174.9 97.6 243.5 64 320 64C461.4 64 576 178.6 576 320C576 461.4 461.4 576 320 576C233 576 156.1 532.6 109.9 466.3C99.8 451.8 103.3 431.9 117.8 421.7C132.3 411.5 152.2 415.1 162.4 429.6C197.2 479.4 254.8 511.9 320 511.9C426 511.9 512 425.9 512 319.9C512 213.9 426 128 320 128z"/>
    </symbol>
  
    <!-- arrow-right-arrow-left -->
    <symbol id="arrow-right-arrow-left" viewBox="0 0 640 640">
      <path d="M566.6 214.6L470.6 310.6C458.1 323.1 437.8 323.1 425.3 310.6C412.8 298.1 412.8 277.8 425.3 265.3L466.7 224L96 224C78.3 224 64 209.7 64 192C64 174.3 78.3 160 96 160L466.7 160L425.3 118.6C412.8 106.1 412.8 85.8 425.3 73.3C437.8 60.8 458.1 60.8 470.6 73.3L566.6 169.3C579.1 181.8 579.1 202.1 566.6 214.6zM169.3 566.6L73.3 470.6C60.8 458.1 60.8 437.8 73.3 425.3L169.3 329.3C181.8 316.8 202.1 316.8 214.6 329.3C227.1 341.8 227.1 362.1 214.6 374.6L173.3 416L544 416C561.7 416 576 430.3 576 448C576 465.7 561.7 480 544 480L173.3 480L214.7 521.4C227.2 533.9 227.2 554.2 214.7 566.7C202.2 579.2 181.9 579.2 169.4 566.7z"/>
    </symbol>
    </defs>
</svg>